<?xml version="1.0" encoding="UTF-8"?>
<svg xmlns="http://www.w3.org/2000/svg" viewBox="0 0 2486 842" id="animatedLogo">
<style>
  .draw-path {
    fill: none;
    stroke: #1a1a1a;
    stroke-width: 2;
    stroke-linecap: round;
    stroke-linejoin: round;
  }
</style>
<!-- Line 1: ARTIST -->
<g class="line1">
  <path class="draw-path" d="M 1784.69 93.84 A 0.69 0.69 0.0 0 1 1784.18 94.69 L 1767.64 98.49 A 0.64 0.63 75.5 0 1 1766.89 98.04 C 1755.46 57.87 1727.49 30.84 1686.33 22.68 Q 1645.82 14.66 1604.65 24.39 Q 1586.84 28.60 1571.62 38.29 C 1550.88 51.47 1538.38 70.52 1536.34 95.04 C 1534.09 122.13 1542.82 147.01 1565.85 162.72 Q 1575.28 169.15 1583.55 173.44 C 1613.80 189.13 1639.18 196.71 1681.07 211.15 Q 1691.63 214.79 1708.92 223.70 Q 1722.24 230.58 1728.06 236.27 C 1739.37 247.36 1747.01 262.22 1746.46 278.55 Q 1745.76 299.38 1730.17 313.71 C 1705.75 336.18 1668.64 339.10 1637.19 335.83 C 1606.39 332.63 1579.00 319.96 1563.63 292.14 Q 1556.52 279.28 1553.79 265.60 A 0.51 0.50 77.8 0 1 1554.17 265.00 L 1571.06 261.12 A 0.77 0.77 0.0 0 1 1571.98 261.70 C 1582.41 309.09 1622.79 321.93 1666.23 319.49 C 1686.70 318.34 1714.23 311.29 1724.26 291.03 C 1729.49 280.46 1727.75 267.71 1721.43 257.79 C 1716.18 249.56 1710.64 244.70 1702.12 240.07 Q 1688.95 232.92 1672.62 226.85 Q 1669.72 225.77 1623.07 209.40 Q 1599.72 201.20 1576.62 189.65 Q 1560.05 181.37 1546.78 170.77 C 1524.50 152.98 1516.65 127.02 1517.44 99.24 Q 1518.70 54.41 1554.13 28.88 C 1585.28 6.42 1624.48 0.54 1662.25 2.43 C 1686.29 3.63 1709.91 9.14 1730.82 21.16 C 1758.35 36.97 1777.03 63.20 1784.69 93.84 Z"/>
  <rect class="draw-path" x="1812.42" y="8.33" width="259.48" height="17.04" rx="0.70"/>
  <path class="draw-path" d="M 574.03 8.30 Q 607.79 8.25 616.17 8.19 A 0.82 0.81 -9.0 0 1 616.96 8.76 L 735.16 374.53 A 0.34 0.34 0.0 0 1 734.84 374.98 L 716.67 374.98 A 0.80 0.80 0.0 0 1 715.91 374.43 L 604.04 26.02 A 1.03 1.03 0.0 0 0 603.06 25.31 Q 588.38 25.29 574.05 25.31 Q 559.73 25.33 545.04 25.38 A 1.03 1.03 0.0 0 0 544.07 26.10 L 433.09 374.79 A 0.80 0.80 0.0 0 1 432.33 375.34 L 414.16 375.39 A 0.34 0.34 0.0 0 1 413.84 374.94 L 531.11 8.87 A 0.82 0.81 8.8 0 1 531.89 8.29 Q 540.27 8.34 574.03 8.30 Z"/>
  <path class="draw-path" d="M 1058.98 375.12 L 1039.49 375.12 A 0.70 0.69 -13.1 0 1 1038.87 374.74 L 957.07 212.66 A 0.58 0.58 0.0 0 1 957.49 211.82 C 999.22 205.11 1030.85 176.52 1036.11 133.65 C 1038.83 111.55 1035.92 85.29 1023.57 66.21 C 1009.10 43.85 984.93 33.33 959.25 28.97 Q 938.15 25.37 916.26 25.36 Q 859.38 25.32 797.88 25.35 A 0.64 0.64 0.0 0 0 797.24 25.99 L 797.24 374.72 A 0.42 0.41 -90.0 0 1 796.83 375.14 L 778.94 375.14 A 0.40 0.39 90.0 0 1 778.55 374.74 L 778.55 9.03 A 0.65 0.65 0.0 0 1 779.20 8.38 Q 808.23 8.26 919.50 8.32 Q 924.10 8.32 932.24 8.76 C 977.35 11.19 1025.69 24.22 1045.98 68.78 C 1054.51 87.51 1056.70 109.47 1055.16 130.42 C 1051.97 173.63 1023.68 208.70 983.41 223.19 A 0.44 0.43 -23.6 0 0 983.17 223.79 L 1059.29 374.61 A 0.35 0.35 0.0 0 1 1058.98 375.12 Z"/>
  <rect class="draw-path" x="1079.99" y="8.33" width="259.78" height="17.04" rx="0.67"/>
  <rect class="draw-path" x="1385.55" y="8.36" width="18.52" height="366.84" rx="0.61"/>
  <rect class="draw-path" x="1434.08" y="8.37" width="19.00" height="366.88" rx="0.53"/>
  <path class="draw-path" d="M 1721.90 109.33 C 1711.81 66.32 1668.25 60.12 1630.97 64.94 C 1611.35 67.49 1587.60 77.28 1587.65 100.80 C 1587.70 120.83 1600.83 129.44 1616.97 136.88 Q 1628.87 142.37 1641.98 146.83 Q 1649.82 149.50 1688.98 162.57 Q 1722.01 173.60 1751.77 190.78 C 1762.19 196.80 1772.03 204.87 1779.04 214.87 C 1795.01 237.66 1800.28 263.36 1796.31 290.51 C 1791.74 321.75 1773.03 343.85 1746.16 359.20 C 1707.91 381.05 1662.57 384.90 1618.92 378.64 Q 1599.90 375.92 1582.45 368.89 Q 1537.20 350.70 1518.10 305.99 Q 1512.03 291.77 1508.83 276.45 A 0.62 0.62 0.0 0 1 1509.30 275.72 L 1525.92 271.90 A 0.97 0.96 77.3 0 1 1527.08 272.64 C 1531.72 294.58 1541.20 316.03 1556.78 331.59 C 1585.34 360.14 1629.43 365.84 1667.85 363.86 C 1700.29 362.19 1731.86 352.53 1755.16 330.35 Q 1774.58 311.86 1778.11 285.32 Q 1782.17 254.75 1766.62 228.74 C 1758.04 214.41 1745.46 206.17 1730.75 198.78 Q 1705.96 186.34 1682.41 178.37 Q 1658.02 170.14 1639.89 164.43 Q 1620.26 158.26 1599.30 147.58 C 1582.19 138.86 1569.66 123.23 1568.57 104.12 C 1566.39 65.48 1603.05 50.08 1635.03 47.22 C 1666.25 44.43 1701.64 48.49 1723.17 73.37 C 1731.04 82.46 1736.48 93.72 1739.73 105.50 A 0.53 0.53 0.0 0 1 1739.34 106.16 L 1722.88 109.94 A 0.82 0.82 0.0 0 1 1721.90 109.33 Z"/>
  <path class="draw-path" d="M 640.67 238.20 L 507.94 238.20 A 0.52 0.52 0.0 0 1 507.44 237.52 L 565.93 52.97 A 0.52 0.52 0.0 0 1 566.43 52.61 L 582.20 52.61 A 0.52 0.52 0.0 0 1 582.69 52.97 L 641.17 237.52 A 0.52 0.52 0.0 0 1 640.67 238.20 Z M 574.54 221.17 Q 606.18 221.10 616.16 221.11 A 0.64 0.64 0.0 0 0 616.78 220.28 Q 599.30 163.24 586.96 123.32 Q 580.16 101.34 574.47 78.19 A 0.33 0.19 86.4 0 0 574.33 77.97 Q 574.27 77.95 574.21 77.95 Q 574.15 77.95 574.10 77.98 A 0.33 0.19 -86.6 0 0 573.96 78.19 Q 568.37 101.37 561.67 123.38 Q 549.52 163.35 532.30 220.47 A 0.64 0.64 0.0 0 0 532.92 221.30 Q 542.90 221.24 574.54 221.17 Z"/>
  <path class="draw-path" d="M 827.82 52.65 Q 884.11 52.63 917.00 52.68 C 938.52 52.71 962.76 55.53 980.74 67.22 C 1002.49 81.35 1007.03 108.66 1003.65 132.34 C 998.55 168.04 969.27 183.73 936.23 187.71 Q 927.50 188.77 911.73 188.76 Q 861.20 188.72 827.83 188.74 A 0.74 0.73 -90.0 0 1 827.10 188.00 L 827.10 53.37 A 0.72 0.72 0.0 0 1 827.82 52.65 Z M 845.65 170.87 A 0.78 0.78 0.0 0 0 846.43 171.65 Q 866.33 171.65 917.25 171.66 C 946.70 171.67 980.03 163.58 984.77 128.73 Q 986.46 116.26 983.89 104.07 Q 979.53 83.48 959.77 76.25 C 946.07 71.25 931.12 69.81 916.24 69.75 Q 887.30 69.64 846.48 69.70 A 0.84 0.84 0.0 0 0 845.65 70.54 L 845.65 170.87 Z"/>
  <path class="draw-path" d="M 1193.78 375.20 L 1175.49 375.19 A 0.43 0.42 0.0 0 1 1175.06 374.77 L 1175.09 70.97 A 0.63 0.63 0.0 0 0 1174.46 70.34 L 1080.66 70.33 A 0.60 0.60 0.0 0 1 1080.06 69.73 L 1080.04 53.16 A 0.55 0.54 0.0 0 1 1080.59 52.62 L 1193.66 52.62 A 0.50 0.50 0.0 0 1 1194.16 53.12 L 1194.14 374.85 A 0.36 0.35 0.0 0 1 1193.78 375.20 Z"/>
  <path class="draw-path" d="M 1226.17 52.60 L 1339.09 52.60 A 0.60 0.60 0.0 0 1 1339.69 53.20 L 1339.69 69.73 A 0.60 0.60 0.0 0 1 1339.09 70.33 L 1245.24 70.33 A 0.60 0.60 0.0 0 0 1244.64 70.93 L 1244.64 374.62 A 0.60 0.60 0.0 0 1 1244.04 375.22 L 1226.17 375.22 A 0.60 0.60 0.0 0 1 1225.57 374.62 L 1225.57 53.20 A 0.60 0.60 0.0 0 1 1226.17 52.60 Z"/>
  <path class="draw-path" d="M 1926.00 375.17 L 1907.70 375.16 A 0.43 0.42 0.0 0 1 1907.27 374.74 L 1907.29 70.98 A 0.63 0.63 0.0 0 0 1906.66 70.35 L 1812.87 70.34 A 0.60 0.60 0.0 0 1 1812.27 69.74 L 1812.25 53.17 A 0.55 0.54 0.0 0 1 1812.80 52.63 L 1925.86 52.62 A 0.50 0.50 0.0 0 1 1926.36 53.12 L 1926.36 374.82 A 0.36 0.35 0.0 0 1 1926.00 375.17 Z"/>
  <path class="draw-path" d="M 1958.12 375.16 A 0.36 0.35 0.0 0 1 1957.76 374.81 L 1957.78 53.11 A 0.50 0.50 0.0 0 1 1958.28 52.61 L 2071.34 52.62 A 0.55 0.54 0.0 0 1 2071.88 53.16 L 2071.86 69.74 A 0.60 0.60 0.0 0 1 2071.26 70.34 L 1977.48 70.33 A 0.63 0.63 0.0 0 0 1976.85 70.96 L 1976.85 374.73 A 0.43 0.42 0.0 0 1 1976.42 375.15 L 1958.12 375.16 Z"/>
  <path class="draw-path" d="M 827.47 375.16 A 0.39 0.38 0.0 0 1 827.08 374.78 L 827.12 216.52 A 0.49 0.48 0.0 0 1 827.61 216.04 L 925.66 216.07 A 1.27 1.26 76.7 0 1 926.79 216.77 Q 1002.27 366.41 1006.31 374.29 Q 1006.46 374.58 1006.39 374.84 Q 1006.31 375.18 1005.97 375.18 Q 995.31 375.23 986.43 375.16 A 0.70 0.69 -13.1 0 1 985.81 374.78 L 914.71 233.80 A 1.26 1.25 76.5 0 0 913.59 233.11 L 846.19 233.09 A 0.55 0.55 0.0 0 0 845.64 233.64 L 845.60 374.47 A 0.70 0.70 0.0 0 1 844.90 375.17 L 827.47 375.16 Z"/>
  <path class="draw-path" d="M 574.46 265.64 Q 647.75 265.61 649.84 265.66 A 0.86 0.84 -7.8 0 1 650.63 266.25 L 684.56 374.51 A 0.49 0.49 0.0 0 1 684.09 375.15 L 665.18 375.15 A 0.77 0.76 81.2 0 1 664.45 374.61 L 636.24 283.31 A 0.86 0.85 81.3 0 0 635.44 282.71 Q 632.54 282.68 574.47 282.71 Q 516.39 282.73 513.50 282.77 A 0.86 0.85 -81.4 0 0 512.69 283.37 L 484.57 374.69 A 0.77 0.76 -81.2 0 1 483.84 375.24 L 464.93 375.25 A 0.49 0.49 0.0 0 1 464.46 374.61 L 498.29 266.32 A 0.86 0.84 7.8 0 1 499.08 265.73 Q 501.17 265.68 574.46 265.64 Z"/>
</g>
<!-- Line 2: ARCHIVES -->
<g class="line2">
  <path class="draw-path" d="M 1000.78 727.82 A 0.35 0.35 0.0 0 1 1001.05 728.25 Q 993.57 756.47 977.66 779.87 C 952.94 816.25 916.48 835.24 872.79 838.85 C 838.22 841.70 801.09 836.05 770.84 817.34 Q 728.64 791.24 710.68 743.81 C 697.43 708.81 694.06 670.36 695.36 632.30 C 697.00 584.19 711.25 538.46 745.50 504.20 Q 786.64 463.07 845.54 460.55 C 870.17 459.49 894.95 462.23 918.04 471.41 Q 969.77 491.97 987.45 544.75 Q 991.49 556.83 993.52 569.15 A 0.69 0.68 81.3 0 1 992.95 569.94 L 977.41 572.28 A 1.01 1.01 0.0 0 1 976.27 571.47 Q 973.58 557.08 968.31 544.45 C 951.95 505.24 919.24 483.89 877.86 478.40 C 846.33 474.22 813.81 478.07 786.32 494.03 C 741.80 519.88 720.05 568.45 715.48 618.00 Q 711.64 659.75 719.06 700.99 Q 723.10 723.48 732.33 744.41 C 747.00 777.68 774.14 804.10 808.56 815.21 C 834.82 823.70 865.90 824.68 892.26 818.71 Q 943.10 807.21 968.43 761.67 Q 977.93 744.58 983.33 725.20 A 1.06 1.05 -76.2 0 1 984.56 724.45 L 1000.78 727.82 Z"/>
  <path class="draw-path" d="M 2463.90 552.05 A 0.69 0.69 0.0 0 1 2463.39 552.90 L 2446.85 556.70 A 0.64 0.63 75.5 0 1 2446.10 556.25 C 2434.67 516.08 2406.69 489.05 2365.54 480.90 Q 2325.03 472.88 2283.86 482.61 Q 2266.05 486.82 2250.83 496.51 C 2230.09 509.69 2217.59 528.74 2215.56 553.26 C 2213.31 580.35 2222.04 605.23 2245.07 620.94 Q 2254.50 627.37 2262.77 631.66 C 2293.02 647.34 2318.40 654.92 2360.29 669.36 Q 2370.85 673.00 2388.14 681.91 Q 2401.46 688.79 2407.28 694.48 C 2418.59 705.56 2426.23 720.42 2425.68 736.75 Q 2424.98 757.58 2409.39 771.91 C 2384.98 794.38 2347.87 797.31 2316.42 794.04 C 2285.62 790.84 2258.23 778.17 2242.86 750.35 Q 2235.75 737.50 2233.02 723.82 A 0.51 0.50 77.8 0 1 2233.40 723.22 L 2250.29 719.34 A 0.77 0.77 0.0 0 1 2251.21 719.92 C 2261.64 767.30 2302.02 780.14 2345.46 777.70 C 2365.93 776.55 2393.46 769.49 2403.48 749.23 C 2408.71 738.66 2406.97 725.91 2400.65 715.99 C 2395.40 707.77 2389.86 702.91 2381.34 698.28 Q 2368.17 691.13 2351.84 685.06 Q 2348.94 683.98 2302.29 667.61 Q 2278.94 659.42 2255.84 647.87 Q 2239.27 639.59 2226.00 628.99 C 2203.72 611.20 2195.87 585.24 2196.66 557.46 Q 2197.91 512.64 2233.34 487.10 C 2264.49 464.64 2303.69 458.76 2341.46 460.65 C 2365.49 461.85 2389.11 467.35 2410.02 479.37 C 2437.55 495.18 2456.24 521.41 2463.90 552.05 Z"/>
  <path class="draw-path" d="M 169.21 483.43 Q 154.88 483.44 140.20 483.50 A 1.03 1.03 0.0 0 0 139.22 484.21 L 28.25 832.91 A 0.80 0.80 0.0 0 1 27.49 833.46 L 9.32 833.50 A 0.34 0.34 0.0 0 1 9.00 833.05 L 126.26 466.99 A 0.82 0.81 8.8 0 1 127.05 466.41 Q 135.43 466.46 169.19 466.41 Q 202.94 466.37 211.33 466.30 A 0.82 0.81 -9.0 0 1 212.11 466.88 L 330.32 832.64 A 0.34 0.34 0.0 0 1 330.00 833.09 L 311.83 833.09 A 0.80 0.80 0.0 0 1 311.07 832.54 L 199.19 484.14 A 1.03 1.03 0.0 0 0 198.22 483.43 Q 183.53 483.41 169.21 483.43 Z"/>
  <path class="draw-path" d="M 654.39 832.84 A 0.35 0.35 0.0 0 1 654.08 833.35 L 634.59 833.35 A 0.70 0.69 -13.1 0 1 633.97 832.97 L 552.17 670.83 A 0.58 0.58 0.0 0 1 552.59 669.99 C 594.33 663.28 625.98 634.69 631.24 591.81 C 633.97 569.70 631.06 543.44 618.71 524.35 C 604.24 501.98 580.07 491.45 554.38 487.09 Q 533.27 483.48 511.38 483.47 Q 454.48 483.42 392.96 483.44 A 0.64 0.64 0.0 0 0 392.32 484.08 L 392.27 832.91 A 0.42 0.41 -90.0 0 1 391.86 833.33 L 373.96 833.33 A 0.40 0.39 -90.0 0 1 373.57 832.93 L 373.63 467.11 A 0.65 0.65 0.0 0 1 374.28 466.46 Q 403.32 466.35 514.62 466.43 Q 519.22 466.43 527.37 466.87 C 572.49 469.31 620.84 482.35 641.13 526.92 C 649.66 545.66 651.84 567.63 650.30 588.58 C 647.10 631.80 618.80 666.88 578.52 681.37 A 0.44 0.43 -23.6 0 0 578.28 681.97 L 654.39 832.84 Z"/>
  <rect class="draw-path" x="1064.43" y="466.37" width="18.62" height="366.90" rx="0.61"/>
  <path class="draw-path" d="M 1214.75 612.54 Q 1276.35 612.54 1296.56 612.58 A 0.82 0.82 0.0 0 0 1297.38 611.76 L 1297.38 466.94 A 0.56 0.56 0.0 0 1 1297.94 466.38 L 1316.03 466.38 A 0.47 0.47 0.0 0 1 1316.50 466.85 L 1316.50 629.29 A 0.70 0.70 0.0 0 1 1315.80 629.99 Q 1309.14 630.05 1214.75 630.05 Q 1120.36 630.05 1113.70 629.99 A 0.70 0.70 0.0 0 1 1113.00 629.29 L 1113.00 466.85 A 0.47 0.47 0.0 0 1 1113.47 466.38 L 1131.56 466.38 A 0.56 0.56 0.0 0 1 1132.12 466.94 L 1132.12 611.76 A 0.82 0.82 0.0 0 0 1132.94 612.58 Q 1153.15 612.54 1214.75 612.54 Z"/>
  <rect class="draw-path" x="1346.37" y="466.39" width="18.50" height="366.88" rx="0.55"/>
  <rect class="draw-path" x="1497.58" y="466.37" width="19.22" height="366.92" rx="0.57"/>
  <path class="draw-path" d="M 1755.94 833.30 L 1672.39 833.30 A 0.67 0.67 0.0 0 1 1671.75 832.83 L 1557.17 467.23 A 0.67 0.67 0.0 0 1 1557.81 466.36 L 1575.96 466.36 A 0.67 0.67 0.0 0 1 1576.60 466.83 L 1685.95 815.75 A 0.67 0.67 0.0 0 0 1686.59 816.22 L 1742.07 816.22 A 0.67 0.67 0.0 0 0 1742.71 815.76 L 1854.99 466.81 A 0.67 0.67 0.0 0 1 1855.63 466.35 L 1873.58 466.35 A 0.67 0.67 0.0 0 1 1874.22 467.23 L 1756.58 832.84 A 0.67 0.67 0.0 0 1 1755.94 833.30 Z"/>
  <path class="draw-path" d="M 1713.99 762.42 A 0.25 0.25 0.0 0 0 1714.47 762.42 Q 1719.49 740.88 1725.41 721.65 Q 1796.22 491.89 1804.14 466.83 A 0.68 0.67 8.9 0 1 1804.78 466.37 L 1823.92 466.37 A 0.38 0.37 9.0 0 1 1824.28 466.86 L 1721.33 788.45 A 0.85 0.85 0.0 0 1 1720.52 789.04 L 1707.90 789.04 A 0.98 0.98 0.0 0 1 1706.97 788.36 L 1607.61 466.86 A 0.39 0.39 0.0 0 1 1607.98 466.36 L 1626.60 466.36 A 0.77 0.77 0.0 0 1 1627.34 466.92 Q 1653.61 554.97 1699.38 708.62 Q 1707.06 734.42 1713.99 762.42 Z"/>
  <path class="draw-path" d="M 2161.81 833.30 L 1916.41 833.30 A 0.78 0.78 0.0 0 1 1915.63 832.52 L 1915.63 467.17 A 0.78 0.78 0.0 0 1 1916.41 466.39 L 2153.72 466.39 A 0.78 0.78 0.0 0 1 2154.50 467.17 L 2154.50 482.62 A 0.78 0.78 0.0 0 1 2153.72 483.40 L 1934.94 483.40 A 0.78 0.78 0.0 0 0 1934.16 484.18 L 1934.16 815.44 A 0.78 0.78 0.0 0 0 1934.94 816.22 L 2161.81 816.22 A 0.78 0.78 0.0 0 1 2162.59 817.00 L 2162.59 832.52 A 0.78 0.78 0.0 0 1 2161.81 833.30 Z"/>
  <rect class="draw-path" x="1449.28" y="466.33" width="18.52" height="366.88" rx="0.65"/>
  <path class="draw-path" d="M 937.94 716.30 A 0.72 0.71 12.5 0 1 938.78 715.77 L 954.76 719.08 A 0.51 0.51 0.0 0 1 955.15 719.71 C 947.13 749.33 930.08 775.02 901.24 787.25 C 885.96 793.72 867.54 795.85 850.30 794.81 C 790.30 791.20 758.37 743.38 749.92 688.52 Q 744.73 654.79 747.87 620.32 C 751.18 583.96 765.73 545.63 795.88 522.90 Q 818.64 505.75 847.51 504.44 C 884.56 502.77 920.17 513.02 937.63 548.89 Q 943.93 561.84 946.51 576.35 A 0.70 0.69 -9.4 0 1 945.93 577.15 L 930.78 579.43 A 0.82 0.82 0.0 0 1 929.86 578.80 C 924.52 555.67 912.68 537.76 890.78 528.30 C 879.44 523.40 864.39 521.45 852.17 521.81 Q 837.98 522.24 825.70 527.07 C 803.66 535.73 785.70 555.16 776.60 577.36 Q 770.32 592.69 767.68 610.71 Q 763.93 636.31 766.10 666.82 Q 767.66 688.85 773.16 707.71 Q 782.60 740.09 807.48 759.86 Q 828.29 776.40 854.85 777.36 C 884.03 778.42 910.45 768.78 926.48 743.24 Q 934.40 730.62 937.94 716.30 Z"/>
  <path class="draw-path" d="M 2401.12 567.55 C 2391.04 524.54 2347.48 518.34 2310.20 523.16 C 2290.58 525.70 2266.83 535.49 2266.88 559.01 C 2266.92 579.04 2280.05 587.65 2296.19 595.09 Q 2308.09 600.58 2321.20 605.04 Q 2329.04 607.71 2368.20 620.79 Q 2401.23 631.82 2430.99 649.00 C 2441.41 655.02 2451.24 663.09 2458.25 673.09 C 2474.22 695.88 2479.49 721.58 2475.52 748.73 C 2470.95 779.97 2452.24 802.07 2425.37 817.42 C 2387.11 839.26 2341.78 843.11 2298.13 836.85 Q 2279.11 834.13 2261.66 827.10 Q 2216.41 808.90 2197.31 764.19 Q 2191.24 749.97 2188.05 734.65 A 0.62 0.62 0.0 0 1 2188.52 733.92 L 2205.14 730.10 A 0.97 0.96 77.3 0 1 2206.30 730.84 C 2210.93 752.78 2220.41 774.23 2235.99 789.80 C 2264.55 818.35 2308.64 824.05 2347.06 822.07 C 2379.50 820.40 2411.07 810.75 2434.37 788.57 Q 2453.79 770.08 2457.32 743.54 Q 2461.38 712.97 2445.83 686.96 C 2437.25 672.63 2424.68 664.39 2409.97 657.00 Q 2385.18 644.56 2361.63 636.59 Q 2337.24 628.35 2319.11 622.64 Q 2299.48 616.47 2278.52 605.79 C 2261.41 597.07 2248.88 581.44 2247.80 562.33 C 2245.62 523.69 2282.28 508.29 2314.26 505.44 C 2345.48 502.65 2380.87 506.71 2402.39 531.59 C 2410.26 540.68 2415.70 551.94 2418.95 563.72 A 0.53 0.53 0.0 0 1 2418.56 564.38 L 2402.10 568.16 A 0.82 0.82 0.0 0 1 2401.12 567.55 Z"/>
  <path class="draw-path" d="M 235.84 696.49 L 103.08 696.49 A 0.53 0.53 0.0 0 1 102.58 695.80 L 161.05 511.28 A 0.53 0.53 0.0 0 1 161.56 510.91 L 177.37 510.91 A 0.53 0.53 0.0 0 1 177.88 511.28 L 236.34 695.80 A 0.53 0.53 0.0 0 1 235.84 696.49 Z M 169.68 679.40 Q 201.29 679.34 211.25 679.35 A 0.64 0.64 0.0 0 0 211.87 678.52 Q 194.43 621.55 182.12 581.67 Q 175.34 559.72 169.66 536.59 A 0.33 0.19 86.4 0 0 169.52 536.38 Q 169.46 536.35 169.40 536.35 Q 169.35 536.35 169.29 536.38 A 0.33 0.19 -86.6 0 0 169.15 536.60 Q 163.56 559.74 156.87 581.72 Q 144.71 621.64 127.49 678.68 A 0.64 0.64 0.0 0 0 128.11 679.51 Q 138.08 679.46 169.68 679.40 Z"/>
  <path class="draw-path" d="M 422.34 511.60 A 0.72 0.72 0.0 0 1 423.06 510.88 Q 479.32 510.86 512.19 510.92 C 533.70 510.95 557.92 513.77 575.89 525.45 C 597.63 539.58 602.16 566.87 598.78 590.54 C 593.68 626.22 564.42 641.89 531.39 645.87 Q 522.67 646.93 506.91 646.91 Q 456.41 646.87 423.06 646.89 A 0.74 0.73 -90.0 0 1 422.33 646.15 L 422.34 511.60 Z M 440.86 629.09 A 0.78 0.78 0.0 0 0 441.64 629.87 Q 461.53 629.86 512.44 629.84 C 541.88 629.83 575.20 621.73 579.92 586.88 Q 581.60 574.41 579.03 562.23 Q 574.66 541.65 554.90 534.43 C 541.20 529.44 526.25 528.01 511.37 527.95 Q 482.44 527.86 441.63 527.94 A 0.84 0.84 0.0 0 0 440.80 528.78 L 440.86 629.09 Z"/>
  <path class="draw-path" d="M 2154.50 511.48 L 2154.50 527.85 A 0.55 0.55 0.0 0 1 2153.95 528.40 L 1983.95 528.40 A 0.55 0.55 0.0 0 0 1983.40 528.95 L 1983.40 611.35 A 0.55 0.55 0.0 0 0 1983.95 611.90 L 2105.35 611.90 A 0.55 0.55 0.0 0 1 2105.90 612.45 L 2105.90 629.05 A 0.55 0.55 0.0 0 1 2105.35 629.60 L 1964.76 629.60 A 0.55 0.55 0.0 0 1 1964.21 629.05 L 1964.21 511.48 A 0.55 0.55 0.0 0 1 1964.76 510.93 L 2153.95 510.93 A 0.55 0.55 0.0 0 1 2154.50 511.48 Z"/>
  <path class="draw-path" d="M 1984.00 771.28 L 2161.98 771.28 A 0.60 0.60 0.0 0 1 2162.58 771.88 L 2162.58 788.45 A 0.60 0.60 0.0 0 1 2161.98 789.05 L 1964.80 789.05 A 0.60 0.60 0.0 0 1 1964.20 788.45 L 1964.20 657.43 A 0.60 0.60 0.0 0 1 1964.80 656.83 L 2105.29 656.83 A 0.60 0.60 0.0 0 1 2105.89 657.43 L 2105.89 673.33 A 0.60 0.60 0.0 0 1 2105.29 673.93 L 1984.00 673.93 A 0.60 0.60 0.0 0 0 1983.40 674.53 L 1983.40 770.68 A 0.60 0.60 0.0 0 0 1984.00 771.28 Z"/>
  <path class="draw-path" d="M 1214.75 657.45 Q 1268.83 657.45 1316.10 657.50 A 0.39 0.39 0.0 0 1 1316.49 657.89 L 1316.49 832.59 A 0.72 0.72 0.0 0 1 1315.77 833.31 L 1297.94 833.31 A 0.57 0.56 0.0 0 1 1297.37 832.75 L 1297.37 675.14 A 0.61 0.61 0.0 0 0 1296.76 674.53 Q 1291.49 674.57 1214.75 674.57 Q 1138.01 674.57 1132.74 674.53 A 0.61 0.61 0.0 0 0 1132.13 675.14 L 1132.13 832.75 A 0.57 0.56 -0.0 0 1 1131.56 833.31 L 1113.73 833.31 A 0.72 0.72 0.0 0 1 1113.01 832.59 L 1113.01 657.89 A 0.39 0.39 0.0 0 1 1113.40 657.50 Q 1160.67 657.45 1214.75 657.45 Z"/>
  <path class="draw-path" d="M 422.73 833.29 A 0.39 0.38 -0.0 0 1 422.34 832.91 L 422.34 674.80 A 0.49 0.48 0.0 0 1 422.83 674.32 L 520.78 674.32 A 1.27 1.26 76.7 0 1 521.91 675.02 Q 597.36 824.50 601.40 832.37 Q 601.55 832.66 601.48 832.92 Q 601.40 833.26 601.06 833.26 Q 590.41 833.31 581.54 833.24 A 0.70 0.69 -13.1 0 1 580.92 832.86 L 509.85 692.04 A 1.26 1.25 76.5 0 0 508.73 691.35 L 441.39 691.35 A 0.55 0.55 0.0 0 0 440.84 691.90 L 440.84 832.59 A 0.70 0.70 0.0 0 1 440.14 833.29 L 422.73 833.29 Z"/>
  <path class="draw-path" d="M 169.62 740.82 Q 111.56 740.85 108.66 740.89 A 0.86 0.85 -81.4 0 0 107.86 741.49 L 79.75 832.80 A 0.77 0.76 -81.2 0 1 79.02 833.34 L 60.11 833.36 A 0.49 0.49 0.0 0 1 59.64 832.72 L 93.45 724.45 A 0.86 0.84 7.8 0 1 94.25 723.85 Q 96.33 723.80 169.61 723.76 Q 242.89 723.71 244.97 723.76 A 0.86 0.84 -7.8 0 1 245.77 724.35 L 279.71 832.59 A 0.49 0.49 0.0 0 1 279.24 833.23 L 260.33 833.23 A 0.77 0.76 81.2 0 1 259.60 832.69 L 231.38 741.41 A 0.86 0.85 81.3 0 0 230.58 740.82 Q 227.68 740.78 169.62 740.82 Z"/>
</g>
</svg>
