<?xml version="1.0" encoding="UTF-8"?>
<svg id="Layer_1" xmlns="http://www.w3.org/2000/svg" version="1.1" viewBox="0 0 700 237">
  <style>
    .draw-path {
      fill: none;
      stroke: #2d2d2d;
      stroke-width: 1;
      stroke-dasharray: 2000;
      stroke-dashoffset: 2000;
      animation: drawIn 2.5s ease-out forwards;
    }
    .line1 .draw-path { animation-delay: 0.3s; }
    .line2 .draw-path { animation-delay: 1.5s; }
    
    @keyframes drawIn {
      0% { stroke-dashoffset: 2000; }
      100% { stroke-dashoffset: 0; }
    }
  </style>
  <g class="line1">
    <path class="draw-path" d="M172.42,1.11l33.61,104.02h-5.36L168.8,5.89h-16.95l-31.58,99.24h-5.36L148.23,1.11h24.19ZM138.95,74.13h43.03l9.71,31h-5.65l-8.11-26.22h-35.06l-7.97,26.22h-5.65l9.71-31ZM158.08,13.72h4.63l16.66,52.59h-37.96l16.66-52.59ZM172.57,61.53l-7.68-25.06c-1.83-5.6-3.33-10.96-4.49-16.08-.97,4.15-2.46,9.56-4.49,16.22l-7.54,24.92h24.2Z"/>
    <path class="draw-path" d="M276.19,62.1l21.88,43.03h-5.8l-23.32-46.22c7.24-1.25,12.84-4.25,16.81-8.98,3.96-4.73,5.94-10.48,5.94-17.24,0-9.07-2.78-15.81-8.33-20.21-5.55-4.39-14.41-6.59-26.58-6.59h-33.18v99.24h-5.22V1.11h38.39c26.75,0,40.13,10.48,40.13,31.44,0,7.24-1.93,13.45-5.79,18.62-3.87,5.17-8.84,8.81-14.93,10.94ZM282.42,32.55c0,6.47-2.17,11.37-6.52,14.7-4.34,3.33-10.48,5-18.4,5h-25.35V13.72h24.63c8.79,0,15.26,1.5,19.41,4.49,4.15,2.99,6.23,7.78,6.23,14.34ZM232.14,60.08h28.1l22.75,45.06h-5.79l-20.28-40.28h-19.56v40.28h-5.22v-45.06ZM257.35,47.47c13.14,0,19.71-4.97,19.71-14.92,0-5.31-1.62-8.98-4.86-11.01-3.23-2.03-8.43-3.04-15.57-3.04h-19.27v28.98h19.99Z"/>
    <path class="draw-path" d="M303.89,1.11h73.6v4.78h-73.6V1.11ZM303.89,13.72h32.31v91.42h-5.36V18.64h-26.95v-4.93ZM345.19,105.13V13.72h32.31v4.93h-26.95v86.49h-5.36Z"/>
    <path class="draw-path" d="M390.56,1.11h5.22v104.02h-5.22V1.11ZM404.33,1.11h5.36v104.02h-5.36V1.11Z"/>
    <path class="draw-path" d="M467.24,106.87c-23.57,0-37.48-9.95-41.72-29.85l5.07-1.16c1.93,8.98,5.89,15.6,11.88,19.85,5.99,4.25,14.25,6.38,24.77,6.38s18.74-2.37,25.21-7.1c6.47-4.73,9.71-10.91,9.71-18.54,0-3.48-.56-6.54-1.66-9.2-1.11-2.66-2.44-4.85-3.98-6.59-1.55-1.74-4.01-3.48-7.39-5.22-3.38-1.74-6.43-3.14-9.13-4.2-2.71-1.06-6.71-2.46-12.03-4.2l-2.32-.72c-3-.96-5.34-1.76-7.03-2.39-1.69-.63-3.72-1.52-6.08-2.68-2.37-1.16-4.18-2.32-5.43-3.48-1.26-1.16-2.34-2.63-3.26-4.42-.92-1.78-1.38-3.74-1.38-5.87,0-4.83,2.1-8.62,6.3-11.37,4.2-2.75,9.92-4.13,17.17-4.13,13.62,0,21.97,5.6,25.06,16.81l-4.93,1.16c-2.12-8.79-8.84-13.18-20.14-13.18-5.79,0-10.26.94-13.4,2.82-3.14,1.88-4.71,4.47-4.71,7.75,0,3.57,1.52,6.33,4.56,8.26,3.05,1.93,8.04,4.01,15,6.23l2.17.72c5.31,1.74,9.46,3.19,12.46,4.35,2.99,1.16,6.35,2.73,10.07,4.71,3.72,1.98,6.52,4.01,8.4,6.08,1.88,2.08,3.5,4.71,4.85,7.9,1.35,3.19,2.03,6.81,2.03,10.87,0,9.56-3.91,17.02-11.73,22.39-7.83,5.36-17.29,8.04-28.4,8.04ZM467.53,94.27c-16.42,0-26.17-6.76-29.26-20.28l5.07-1.16c2.41,11.11,10.48,16.66,24.19,16.66,6.09,0,10.94-1.13,14.56-3.41,3.62-2.27,5.43-5.14,5.43-8.62,0-1.74-.41-3.36-1.23-4.85-.82-1.5-1.76-2.73-2.82-3.7-1.06-.96-2.75-2.01-5.07-3.12-2.32-1.11-4.27-1.96-5.87-2.53-1.6-.58-4.03-1.45-7.32-2.61l-4.64-1.59c-11.98-4.15-20.4-8.4-25.28-12.75-4.88-4.34-7.31-10.52-7.31-18.54,0-8.88,3.5-15.84,10.5-20.87,7-5.02,16.01-7.53,27.02-7.53,10.14,0,18.49,2.24,25.07,6.74,6.57,4.49,10.96,10.94,13.18,19.34l-4.93,1.3c-4.35-15.06-15.41-22.6-33.18-22.6-10.05,0-17.97,2.13-23.76,6.38-5.8,4.25-8.69,10-8.69,17.24,0,6.47,2.03,11.57,6.08,15.28,4.06,3.72,11.88,7.61,23.47,11.66l3.91,1.31c3.67,1.26,6.38,2.2,8.11,2.82s4.01,1.64,6.81,3.04c2.8,1.4,4.85,2.73,6.16,3.98,1.3,1.26,2.48,2.88,3.55,4.85,1.06,1.98,1.6,4.18,1.6,6.59,0,4.93-2.27,8.98-6.81,12.17-4.54,3.19-10.72,4.78-18.55,4.78Z"/>
    <path class="draw-path" d="M511.61,1.11h73.6v4.78h-73.6V1.11ZM511.61,13.72h32.31v91.42h-5.36V18.64h-26.95v-4.93ZM552.9,105.13V13.72h32.31v4.93h-26.95v86.49h-5.36Z"/>
  </g>
  <g class="line2">
    <path class="draw-path" d="M57.57,131.1l33.61,104.02h-5.36l-31.87-99.24h-16.95L5.41,235.13H.05l33.32-104.02h24.19ZM24.1,204.12h43.03l9.71,31h-5.65l-8.11-26.22H28.02l-7.97,26.22h-5.65l9.71-31ZM43.23,143.71h4.63l16.66,52.59H26.57l16.66-52.59ZM57.72,191.52l-7.68-25.06c-1.84-5.6-3.33-10.96-4.49-16.08-.97,4.15-2.46,9.56-4.49,16.23l-7.54,24.92h24.2Z"/>
    <path class="draw-path" d="M161.34,192.09l21.88,43.03h-5.8l-23.33-46.22c7.24-1.25,12.84-4.25,16.81-8.98,3.96-4.73,5.94-10.48,5.94-17.24,0-9.07-2.78-15.81-8.33-20.21-5.55-4.39-14.41-6.59-26.58-6.59h-33.18v99.24h-5.22v-104.02h38.39c26.75,0,40.13,10.48,40.13,31.44,0,7.24-1.93,13.45-5.79,18.62-3.87,5.17-8.84,8.81-14.93,10.94ZM167.57,162.54c0,6.47-2.17,11.37-6.52,14.7-4.34,3.33-10.48,5-18.4,5h-25.35v-38.54h24.63c8.79,0,15.26,1.5,19.41,4.49,4.15,2.99,6.23,7.77,6.23,14.34ZM117.3,190.07h28.1l22.75,45.06h-5.79l-20.28-40.28h-19.56v40.28h-5.22v-45.06ZM142.5,177.46c13.14,0,19.71-4.97,19.71-14.92,0-5.31-1.62-8.98-4.85-11.01-3.23-2.03-8.43-3.04-15.57-3.04h-19.27v28.98h19.99Z"/>
    <path class="draw-path" d="M240.48,236.86c-13.82,0-24.9-4.56-33.25-13.69-8.35-9.13-12.53-22.96-12.53-41.51,0-16.22,4.27-29,12.82-38.32,8.55-9.32,19.34-13.98,32.38-13.98,10.62,0,19.42,2.61,26.37,7.82,6.95,5.22,11.3,12.94,13.04,23.18l-4.78.72c-1.64-8.69-5.43-15.38-11.37-20.07-5.94-4.68-13.74-7.03-23.4-7.03-11.79,0-21.35,4.27-28.69,12.82-7.34,8.55-11.01,20.17-11.01,34.84,0,16.32,3.6,28.81,10.79,37.45,7.19,8.65,17.07,12.97,29.63,12.97,18.73,0,30.76-9.27,36.07-27.82l4.93,1.01c-2.9,10.14-7.82,17.95-14.78,23.4-6.96,5.46-15.7,8.19-26.22,8.19ZM240.91,224.26c-9.76,0-17.46-3.72-23.11-11.16-5.65-7.44-8.47-17.92-8.47-31.44,0-12.07,2.8-21.73,8.4-28.98,5.6-7.24,12.94-10.87,22.02-10.87,14.87,0,23.61,6.86,26.22,20.57l-4.64.73c-2.42-10.91-9.61-16.37-21.59-16.37-6.95,0-12.89,2.92-17.82,8.76-4.93,5.85-7.39,14.56-7.39,26.15,0,12.85,2.56,22.34,7.68,28.47,5.12,6.14,11.35,9.2,18.69,9.2,11.98,0,19.56-5.84,22.75-17.53l4.78,1.02c-4.06,14.29-13.24,21.44-27.53,21.44Z"/>
    <path class="draw-path" d="M299.48,131.1h5.22v104.02h-5.22v-104.02ZM370.9,177.46h-57.66v-46.36h5.36v41.43h46.94v-41.43h5.36v46.36ZM313.24,185.29h57.66v49.84h-5.36v-45.06h-46.94v45.06h-5.36v-49.84ZM379.45,131.1h5.22v104.02h-5.22v-104.02Z"/>
    <path class="draw-path" d="M408.6,131.1h5.22v104.02h-5.22v-104.02ZM422.37,131.1h5.36v104.02h-5.36v-104.02Z"/>
    <path class="draw-path" d="M523.82,131.1h5.36l-33.47,104.02h-23.9l-32.6-104.02h5.5l31.01,99.24h16.08l32.02-99.24ZM485.71,222.52h-3.91l-28.25-91.42h5.51l19.99,67.08c2.12,7.15,3.67,12.85,4.64,17.1h.14c1.06-4.64,2.66-10.33,4.78-17.1l20.72-67.08h5.65l-29.27,91.42Z"/>
    <path class="draw-path" d="M546.16,230.35h64.76v4.78h-69.98v-104.02h67.66v4.78h-62.44v94.46ZM608.61,148.63h-48.53v23.76h34.77v4.93h-40.13v-33.61h53.89v4.93ZM560.07,217.59h50.85v4.93h-56.21v-37.38h40.13v4.78h-34.77v27.67Z"/>
    <path class="draw-path" d="M659.92,236.86c-23.57,0-37.48-9.95-41.72-29.85l5.07-1.16c1.93,8.98,5.89,15.6,11.88,19.85,5.99,4.25,14.25,6.38,24.77,6.38s18.74-2.37,25.21-7.1c6.47-4.73,9.71-10.91,9.71-18.55,0-3.48-.56-6.54-1.66-9.2-1.11-2.66-2.44-4.86-3.98-6.59-1.55-1.74-4.01-3.48-7.39-5.22-3.38-1.74-6.43-3.14-9.13-4.2-2.71-1.06-6.71-2.46-12.03-4.2l-2.32-.73c-2.99-.96-5.34-1.76-7.03-2.39-1.69-.63-3.72-1.52-6.08-2.68-2.37-1.16-4.18-2.32-5.43-3.48-1.26-1.16-2.34-2.63-3.26-4.42-.92-1.79-1.38-3.74-1.38-5.87,0-4.83,2.1-8.62,6.3-11.37,4.2-2.75,9.92-4.13,17.17-4.13,13.62,0,21.97,5.6,25.06,16.81l-4.93,1.16c-2.12-8.78-8.84-13.18-20.14-13.18-5.79,0-10.26.94-13.4,2.82-3.14,1.89-4.71,4.47-4.71,7.75,0,3.57,1.52,6.33,4.56,8.26,3.05,1.94,8.04,4.01,15,6.23l2.17.73c5.31,1.74,9.46,3.19,12.46,4.35,2.99,1.16,6.35,2.73,10.07,4.71,3.72,1.98,6.52,4.01,8.4,6.08,1.88,2.08,3.5,4.71,4.85,7.9,1.35,3.19,2.03,6.81,2.03,10.87,0,9.56-3.91,17.02-11.73,22.39-7.83,5.36-17.29,8.04-28.4,8.04ZM660.21,224.26c-16.42,0-26.17-6.76-29.27-20.28l5.07-1.16c2.41,11.11,10.48,16.66,24.19,16.66,6.09,0,10.94-1.14,14.56-3.41,3.62-2.27,5.43-5.14,5.43-8.62,0-1.74-.41-3.36-1.23-4.85-.82-1.5-1.76-2.73-2.82-3.69-1.06-.96-2.75-2.01-5.07-3.12-2.32-1.11-4.27-1.96-5.87-2.53-1.6-.58-4.03-1.45-7.32-2.61l-4.64-1.59c-11.98-4.15-20.41-8.4-25.28-12.75-4.88-4.34-7.31-10.52-7.31-18.54,0-8.89,3.5-15.84,10.5-20.87,7-5.02,16.01-7.53,27.02-7.53,10.14,0,18.49,2.25,25.07,6.74,6.56,4.49,10.96,10.94,13.18,19.34l-4.93,1.3c-4.35-15.06-15.41-22.6-33.18-22.6-10.05,0-17.97,2.13-23.76,6.38-5.8,4.25-8.69,10-8.69,17.24,0,6.47,2.03,11.57,6.08,15.28,4.06,3.72,11.88,7.61,23.47,11.66l3.91,1.31c3.67,1.26,6.38,2.2,8.11,2.82,1.74.63,4.01,1.64,6.81,3.04,2.8,1.4,4.85,2.73,6.16,3.98,1.3,1.26,2.48,2.88,3.55,4.85,1.06,1.98,1.6,4.18,1.6,6.59,0,4.93-2.27,8.98-6.81,12.17-4.54,3.19-10.72,4.78-18.55,4.78Z"/>
  </g>
</svg>
